<?xml version="1.0" standalone="no"?>
<!DOCTYPE svg PUBLIC "-//W3C//DTD SVG 20010904//EN"
 "http://www.w3.org/TR/2001/REC-SVG-20010904/DTD/svg10.dtd">
<svg version="1.0" xmlns="http://www.w3.org/2000/svg"
 width="700.000000pt" height="700.000000pt" viewBox="0 0 700.000000 700.000000"
 preserveAspectRatio="xMidYMid meet">
<metadata>
Created by potrace 1.14, written by Peter Selinger 2001-2017
</metadata>
<g transform="translate(0.000000,700.000000) scale(0.100000,-0.100000)"
fill="#000000" stroke="none">
<path d="M1105 6118 c-109 -23 -195 -110 -220 -222 -8 -37 -11 -681 -10 -2421
l1 -2370 26 -55 c42 -88 104 -141 196 -164 36 -9 594 -12 2422 -11 l2375 1 55
26 c84 40 148 112 166 188 13 57 12 4757 -1 4810 -20 77 -52 124 -115 172 -75
55 74 52 -2487 53 -1305 0 -2388 -3 -2408 -7z m4583 -2619 l0 -2188 -2188 1
-2187 1 0 2187 -1 2187 2189 0 2188 1 -1 -2189z"/>
<path d="M2528 5245 c-1 -1 -25 -6 -51 -9 -158 -21 -331 -111 -458 -236 -92
-91 -129 -141 -176 -235 -69 -137 -91 -242 -88 -408 2 -109 7 -147 29 -220 85
-281 287 -494 559 -588 112 -38 182 -48 312 -44 354 11 656 225 785 558 16 40
31 84 34 98 3 13 9 47 15 74 18 88 6 278 -23 378 -48 160 -107 260 -230 383
-163 163 -378 252 -610 252 -52 0 -96 -1 -98 -3z m217 -451 c121 -36 217 -119
273 -234 36 -73 37 -79 37 -185 0 -108 -1 -113 -37 -185 -43 -87 -105 -154
-178 -194 -224 -122 -494 -38 -606 190 -29 57 -37 87 -41 151 -15 211 101 385
302 455 59 21 185 22 250 2z"/>
<path d="M3945 5239 c-43 -12 -109 -71 -130 -116 -59 -124 17 -276 151 -302
29 -6 269 -9 584 -8 532 2 535 2 577 24 71 39 123 120 123 195 0 75 -61 164
-135 199 -37 17 -74 19 -590 18 -302 0 -564 -5 -580 -10z"/>
<path d="M3977 4588 c-106 -15 -189 -116 -183 -223 5 -82 49 -145 131 -188 39
-20 52 -21 595 -21 614 -1 588 -3 659 65 75 71 89 174 37 263 -25 43 -81 88
-126 102 -31 9 -1049 12 -1113 2z"/>
<path d="M3959 3930 c-119 -33 -188 -148 -158 -265 16 -62 88 -138 145 -154
53 -15 1094 -15 1147 0 78 21 157 123 157 201 0 81 -50 161 -123 201 -42 22
-44 22 -592 23 -302 0 -562 -2 -576 -6z"/>
<path d="M2052 3201 c-42 -11 -101 -58 -127 -101 -30 -53 -30 -153 1 -210 14
-25 104 -124 204 -224 99 -99 180 -182 180 -185 0 -4 -84 -89 -186 -191 -114
-113 -193 -200 -205 -225 -68 -146 55 -326 211 -308 82 9 106 27 302 221 103
103 191 186 195 185 5 -1 92 -86 194 -188 119 -117 201 -191 225 -202 55 -23
134 -19 192 10 87 43 130 152 102 257 -10 39 -38 71 -208 242 -108 109 -194
200 -191 202 2 3 90 92 195 198 211 214 223 233 211 339 -8 61 -30 102 -77
140 -53 42 -115 56 -187 40 -57 -13 -61 -16 -258 -212 l-200 -198 -190 189
c-105 105 -205 197 -223 205 -40 20 -116 27 -160 16z"/>
<path d="M3875 3191 c-27 -12 -48 -31 -63 -59 l-22 -40 0 -611 c1 -628 1 -641
40 -682 46 -50 36 -49 692 -49 677 0 654 -2 702 63 21 28 21 40 24 640 2 337
0 626 -3 643 -6 36 -48 85 -87 101 -19 9 -194 12 -635 12 -564 0 -611 -1 -648
-18z m935 -438 c3 -88 0 -556 -3 -559 -2 -3 -462 -7 -549 -5 l-28 1 0 290 0
290 290 0 c269 0 290 -1 290 -17z"/>
</g>
</svg>
